<svg xmlns="http://www.w3.org/2000/svg" width="15.245" height="9.147" viewBox="0 0 15.245 9.147">
  <path id="Icon_awesome-money-bill-alt" data-name="Icon awesome-money-bill-alt" d="M8.384,9.836H8v-2.1a.191.191,0,0,0-.191-.191H7.489a.571.571,0,0,0-.317.1l-.365.243a.19.19,0,0,0-.053.264l.212.317a.19.19,0,0,0,.264.053l.011-.007V9.836H6.86a.191.191,0,0,0-.191.191v.381a.191.191,0,0,0,.191.191H8.384a.191.191,0,0,0,.191-.191v-.381A.191.191,0,0,0,8.384,9.836Zm6.1-5.336H.762A.762.762,0,0,0,0,5.262v7.622a.762.762,0,0,0,.762.762h13.72a.762.762,0,0,0,.762-.762V5.262A.762.762,0,0,0,14.482,4.5Zm-13.339,8V10.979A1.524,1.524,0,0,1,2.668,12.5Zm0-5.336V5.643H2.668A1.524,1.524,0,0,1,1.143,7.168Zm6.479,4.573A2.5,2.5,0,0,1,5.336,9.073,2.5,2.5,0,0,1,7.622,6.406,2.5,2.5,0,0,1,9.909,9.073,2.5,2.5,0,0,1,7.622,11.741ZM14.1,12.5H12.577A1.524,1.524,0,0,1,14.1,10.979Zm0-5.336a1.524,1.524,0,0,1-1.524-1.524H14.1Z" transform="translate(0 -4.5)" fill="#00bffe"/>
</svg>
