<svg id="logout-circle-r-line" xmlns="http://www.w3.org/2000/svg" width="15.245" height="15.081" viewBox="0 0 15.245 15.081">
  <path id="Path_27540" data-name="Path 27540" d="M0,0H15.245V15.081H0Z" fill="none"/>
  <path id="Path_27541" data-name="Path 27541" d="M8.352,14.54A6.271,6.271,0,1,1,8.352,2a6.371,6.371,0,0,1,5.082,2.508H11.712A5.129,5.129,0,0,0,4.684,4.8a4.969,4.969,0,0,0,0,6.944,5.129,5.129,0,0,0,7.029.289h1.721A6.371,6.371,0,0,1,8.352,14.54ZM12.8,10.778V8.9H7.717V7.643H12.8V5.762L15.974,8.27Z" transform="translate(-0.73 -0.73)" fill="#00bffe"/>
</svg>
