<svg id="privacy-policy" xmlns="http://www.w3.org/2000/svg" width="15.245" height="17.219" viewBox="0 0 15.245 17.219">
  <path id="Path_278" data-name="Path 278" d="M351,8.787v3.565h3.565Z" transform="translate(-339.664 -8.444)" fill="#00bffe"/>
  <path id="Path_279" data-name="Path 279" d="M175.529,192h-2.414A3.094,3.094,0,0,1,171,193.509v2.814a4.867,4.867,0,0,0,3.323,4.638,4.867,4.867,0,0,0,3.323-4.638v-2.814A3.094,3.094,0,0,1,175.529,192Zm.866,3.8-2.211,2.211a.586.586,0,0,1-.829,0l-1.106-1.106a.586.586,0,0,1,.829-.829l.691.691,1.8-1.8a.586.586,0,1,1,.829.829Z" transform="translate(-166.7 -186.392)" fill="#00bffe"/>
  <path id="Path_280" data-name="Path 280" d="M71.749,4.372a.55.55,0,0,1-.586-.5V0H63.15A2.019,2.019,0,0,0,61,1.85v13.52a2.019,2.019,0,0,0,2.15,1.85H74.095a2.019,2.019,0,0,0,2.15-1.85v-11Zm1.368,5.8a4.727,4.727,0,0,1-1.2,3.118,6.106,6.106,0,0,1-3.126,1.885.677.677,0,0,1-.337,0,6.106,6.106,0,0,1-3.126-1.885,4.727,4.727,0,0,1-1.2-3.118V7.3a.55.55,0,0,1,.586-.5,1.986,1.986,0,0,0,1.738-.924l.083-.142a.6.6,0,0,1,.524-.279h3.127a.6.6,0,0,1,.524.279l.083.142a1.986,1.986,0,0,0,1.738.924.55.55,0,0,1,.586.5Z" transform="translate(-61)" fill="#00bffe"/>
</svg>
