<svg id="accept" xmlns="http://www.w3.org/2000/svg" width="15.777" height="16.467" viewBox="0 0 15.777 16.467">
  <path id="Path_276" data-name="Path 276" d="M11.77,7.516h.089q.23,0,.457.029v-5.6A1.945,1.945,0,0,0,10.373,0H1.943A1.945,1.945,0,0,0,0,1.943V13.118a1.945,1.945,0,0,0,1.943,1.943H7.571a4.943,4.943,0,0,1,4.2-7.546Zm-4.8-4.343H9.847a.482.482,0,0,1,0,.965H6.968a.482.482,0,1,1,0-.965Zm0,1.93H9.847a.482.482,0,0,1,0,.965H6.968a.482.482,0,1,1,0-.965Zm-1.62,6.787H2.469a.482.482,0,0,1,0-.965H5.348a.482.482,0,0,1,0,.965Zm0-1.962H2.469a.482.482,0,1,1,0-.965H5.348a.482.482,0,1,1,0,.965Zm0-1.93H2.469a.482.482,0,0,1,0-.965H5.348a.482.482,0,0,1,0,.965Zm0-1.93H2.469a.482.482,0,0,1,0-.965H5.348a.482.482,0,0,1,0,.965Zm0-1.93H2.469a.482.482,0,0,1,0-.965H5.348a.482.482,0,0,1,0,.965ZM6.486,7.514a.482.482,0,0,1,.482-.482H8.355a.482.482,0,0,1,0,.965H6.968A.482.482,0,0,1,6.486,7.514Zm0,0" fill="#00bffe"/>
  <path id="Path_277" data-name="Path 277" d="M248.25,263.878a3.981,3.981,0,0,0-2.785-1.2h-.072a4.008,4.008,0,1,0,2.857,1.2Zm-1.145,2.159-1.53,1.907a.482.482,0,0,1-.659.089l-1.141-.827a.482.482,0,0,1,.566-.781l.769.557,1.243-1.549a.482.482,0,0,1,.753.6Zm0,0" transform="translate(-233.623 -254.231)" fill="#00bffe"/>
</svg>
