<svg xmlns="http://www.w3.org/2000/svg" width="21.156" height="28.209" viewBox="0 0 21.156 28.209">
  <path id="Icon_awesome-file-upload" data-name="Icon awesome-file-upload" d="M12.341,7.493V0H1.322A1.319,1.319,0,0,0,0,1.322V26.886a1.319,1.319,0,0,0,1.322,1.322H19.834a1.319,1.319,0,0,0,1.322-1.322V8.815H13.664A1.326,1.326,0,0,1,12.341,7.493Zm3.591,11.9H12.341V23.8a.881.881,0,0,1-.882.882H9.7a.881.881,0,0,1-.882-.882V19.394H5.224A.882.882,0,0,1,4.6,17.887l5.312-5.273a.939.939,0,0,1,1.324,0l5.312,5.273A.881.881,0,0,1,15.932,19.394ZM20.771,5.785,15.377.386A1.321,1.321,0,0,0,14.44,0H14.1V7.052h7.052V6.716A1.318,1.318,0,0,0,20.771,5.785Z" fill="#dfdfdf"/>
</svg>
